<?xml version="1.0" encoding="UTF-8" standalone="no"?>
<!-- Created with Inkscape (http://www.inkscape.org/) -->

<svg
   xmlns:dc="http://purl.org/dc/elements/1.1/"
   xmlns:cc="http://creativecommons.org/ns#"
   xmlns:rdf="http://www.w3.org/1999/02/22-rdf-syntax-ns#"
   xmlns:svg="http://www.w3.org/2000/svg"
   xmlns="http://www.w3.org/2000/svg"
   xmlns:sodipodi="http://sodipodi.sourceforge.net/DTD/sodipodi-0.dtd"
   xmlns:inkscape="http://www.inkscape.org/namespaces/inkscape"
   width="800"
   height="600"
   id="svg2"
   version="1.1"
   inkscape:version="0.47 r22583"
   sodipodi:docname="06-title-20.svg"
   inkscape:export-filename="/home/rox/devel/games/4yourik/06-title-20.png"
   inkscape:export-xdpi="90"
   inkscape:export-ydpi="90">
  <sodipodi:namedview
     id="base"
     pagecolor="#ffffff"
     bordercolor="#666666"
     borderopacity="1.0"
     inkscape:pageopacity="0.0"
     inkscape:pageshadow="2"
     inkscape:zoom="0.41"
     inkscape:cx="221.11495"
     inkscape:cy="154.85095"
     inkscape:document-units="px"
     inkscape:current-layer="layer1"
     showgrid="false"
     inkscape:showpageshadow="false"
     inkscape:window-width="1680"
     inkscape:window-height="983"
     inkscape:window-x="-4"
     inkscape:window-y="-4"
     inkscape:window-maximized="1"
     showguides="true"
     inkscape:guide-bbox="true" />
  <defs
     id="defs4">
    <inkscape:perspective
       id="perspective10"
       inkscape:persp3d-origin="372.04724 : 350.78739 : 1"
       inkscape:vp_z="744.09448 : 526.18109 : 1"
       inkscape:vp_y="0 : 1000 : 0"
       inkscape:vp_x="0 : 526.18109 : 1"
       sodipodi:type="inkscape:persp3d" />
    <inkscape:perspective
       id="perspective3764"
       inkscape:persp3d-origin="0.5 : 0.33333333 : 1"
       inkscape:vp_z="1 : 0.5 : 1"
       inkscape:vp_y="0 : 1000 : 0"
       inkscape:vp_x="0 : 0.5 : 1"
       sodipodi:type="inkscape:persp3d" />
    <inkscape:perspective
       id="perspective3721"
       inkscape:persp3d-origin="0.5 : 0.33333333 : 1"
       inkscape:vp_z="1 : 0.5 : 1"
       inkscape:vp_y="0 : 1000 : 0"
       inkscape:vp_x="0 : 0.5 : 1"
       sodipodi:type="inkscape:persp3d" />
    <inkscape:perspective
       id="perspective3699"
       inkscape:persp3d-origin="0.5 : 0.33333333 : 1"
       inkscape:vp_z="1 : 0.5 : 1"
       inkscape:vp_y="0 : 1000 : 0"
       inkscape:vp_x="0 : 0.5 : 1"
       sodipodi:type="inkscape:persp3d" />
    <inkscape:perspective
       id="perspective3675"
       inkscape:persp3d-origin="0.5 : 0.33333333 : 1"
       inkscape:vp_z="1 : 0.5 : 1"
       inkscape:vp_y="0 : 1000 : 0"
       inkscape:vp_x="0 : 0.5 : 1"
       sodipodi:type="inkscape:persp3d" />
    <inkscape:perspective
       id="perspective3647"
       inkscape:persp3d-origin="0.5 : 0.33333333 : 1"
       inkscape:vp_z="1 : 0.5 : 1"
       inkscape:vp_y="0 : 1000 : 0"
       inkscape:vp_x="0 : 0.5 : 1"
       sodipodi:type="inkscape:persp3d" />
    <inkscape:perspective
       sodipodi:type="inkscape:persp3d"
       inkscape:vp_x="0 : 526.18109 : 1"
       inkscape:vp_y="0 : 1000 : 0"
       inkscape:vp_z="744.09448 : 526.18109 : 1"
       inkscape:persp3d-origin="372.04724 : 350.78739 : 1"
       id="perspective10-6" />
    <linearGradient
       id="linearGradient3623">
      <stop
         style="stop-color:#afdde9;stop-opacity:1;"
         offset="0"
         id="stop3625" />
      <stop
         style="stop-color:#afdde9;stop-opacity:0;"
         offset="1"
         id="stop3627" />
    </linearGradient>
    <filter
       color-interpolation-filters="sRGB"
       inkscape:menu-tooltip="Smooth drop-like bevel with metallic finish"
       inkscape:menu="Bevels"
       height="1"
       width="1"
       y="0"
       x="0"
       inkscape:label="Metal casting"
       id="filter3188">
      <feColorMatrix
         result="result1"
         in="SourceGraphic"
         type="saturate"
         values="0.37"
         id="feColorMatrix3190" />
      <feGaussianBlur
         in="SourceAlpha"
         stdDeviation="7"
         id="feGaussianBlur3192" />
      <feSpecularLighting
         result="result2"
         surfaceScale="10"
         specularConstant="3.88"
         specularExponent="8"
         id="feSpecularLighting3194">
        <feDistantLight
           elevation="17"
           azimuth="225"
           id="feDistantLight3196" />
      </feSpecularLighting>
      <feComposite
         operator="atop"
         in2="result1"
         id="feComposite3198" />
    </filter>
    <filter
       inkscape:collect="always"
       id="filter4104"
       x="-0.205218"
       width="1.410436"
       y="-0.18932773"
       height="1.3786555">
      <feGaussianBlur
         inkscape:collect="always"
         stdDeviation="32.983274"
         id="feGaussianBlur4106" />
    </filter>
    <inkscape:perspective
       id="perspective4116"
       inkscape:persp3d-origin="0.5 : 0.33333333 : 1"
       inkscape:vp_z="1 : 0.5 : 1"
       inkscape:vp_y="0 : 1000 : 0"
       inkscape:vp_x="0 : 0.5 : 1"
       sodipodi:type="inkscape:persp3d" />
    <filter
       color-interpolation-filters="sRGB"
       inkscape:collect="always"
       id="filter4104-6"
       x="-0.205218"
       width="1.410436"
       y="-0.18932773"
       height="1.3786556">
      <feGaussianBlur
         inkscape:collect="always"
         stdDeviation="32.983274"
         id="feGaussianBlur4106-1" />
    </filter>
    <inkscape:perspective
       id="perspective4116-5"
       inkscape:persp3d-origin="0.5 : 0.33333333 : 1"
       inkscape:vp_z="1 : 0.5 : 1"
       inkscape:vp_y="0 : 1000 : 0"
       inkscape:vp_x="0 : 0.5 : 1"
       sodipodi:type="inkscape:persp3d" />
    <filter
       color-interpolation-filters="sRGB"
       inkscape:collect="always"
       id="filter4104-4"
       x="-0.205218"
       width="1.410436"
       y="-0.18932773"
       height="1.3786556">
      <feGaussianBlur
         inkscape:collect="always"
         stdDeviation="32.983274"
         id="feGaussianBlur4106-7" />
    </filter>
    <inkscape:perspective
       id="perspective4157"
       inkscape:persp3d-origin="0.5 : 0.33333333 : 1"
       inkscape:vp_z="1 : 0.5 : 1"
       inkscape:vp_y="0 : 1000 : 0"
       inkscape:vp_x="0 : 0.5 : 1"
       sodipodi:type="inkscape:persp3d" />
    <filter
       color-interpolation-filters="sRGB"
       inkscape:collect="always"
       id="filter4104-6-5"
       x="-0.205218"
       width="1.410436"
       y="-0.18932773"
       height="1.3786556">
      <feGaussianBlur
         inkscape:collect="always"
         stdDeviation="32.983274"
         id="feGaussianBlur4106-1-6" />
    </filter>
    <inkscape:perspective
       id="perspective4206"
       inkscape:persp3d-origin="0.5 : 0.33333333 : 1"
       inkscape:vp_z="1 : 0.5 : 1"
       inkscape:vp_y="0 : 1000 : 0"
       inkscape:vp_x="0 : 0.5 : 1"
       sodipodi:type="inkscape:persp3d" />
    <filter
       color-interpolation-filters="sRGB"
       inkscape:collect="always"
       id="filter4104-3"
       x="-0.205218"
       width="1.410436"
       y="-0.18932773"
       height="1.3786556">
      <feGaussianBlur
         inkscape:collect="always"
         stdDeviation="32.983274"
         id="feGaussianBlur4106-74" />
    </filter>
  </defs>
  <metadata
     id="metadata7">
    <rdf:RDF>
      <cc:Work
         rdf:about="">
        <dc:format>image/svg+xml</dc:format>
        <dc:type
           rdf:resource="http://purl.org/dc/dcmitype/StillImage" />
        <dc:title></dc:title>
      </cc:Work>
    </rdf:RDF>
  </metadata>
  <g
     inkscape:label="back"
     id="layer2"
     inkscape:groupmode="layer" />
  <g
     inkscape:label="Слой"
     id="layer3"
     inkscape:groupmode="layer"
     style="display:inline">
    <path
       sodipodi:nodetypes="cssssc"
       id="path3203"
       d="m 274.07407,112.03704 -3.49504,3.60109 -2.50389,4.34899 -2.26151,4.77439 1.24811,5.13337 -0.60369,5.32057 -4.0756,3.47308 -3.57492,3.73382 -4.98876,1.35415 -3.55031,3.64192 -1.25944,4.92769 -3.73257,3.27807 -4.52544,2.04897 -4.87611,1.08365 -3.40634,3.65345 -3.96514,2.73571 -4.56426,1.54077 -2.8125,4.1606 -3.77115,3.31649 -1.91155,4.87592 -4.41126,2.823 -2.18888,4.81113 0.83067,5.21997 1.41579,4.86868 0.82568,5.00267 0.42744,4.79864 -1.9448,4.40764 -1.32055,4.47445 -1.33453,4.4703 -3.92722,3.02652 -2.01512,4.53013 -0.89122,4.72445 -0.68351,4.75893 -0.5283,5.21203 -3.49985,3.89812 -4.64276,2.12098 -3.2917,3.90108 -4.60944,1.42008 -4.65887,1.24839 -4.68041,1.17073 -4.60122,1.45107 -4.7733,1.76953 -2.35616,4.51267 -4.38506,2.15125 -4.88398,-0.0584 -4.9718,1.01335 -4.86223,-1.45064 -2.88403,4.26337 -4.77614,1.91897 -1.75119,4.6017 -1.25892,4.75997 -0.7287,4.93774 -2.3587,4.39873 -2.56575,4.49693 -4.42857,2.68202 -4.97103,1.13293 -4.22452,2.85451 -4.20006,2.42405 -4.06967,2.63709 -4.30108,2.84707 -1.469399,4.94429 -4.526127,1.82622 -3.908706,2.92282 -4.897575,-0.0396 -4.67972,1.445 -4.020453,-2.98286 -2.501494,-4.33636 -4.929416,-1.79452 -2.483423,-4.62083 -4.014812,-2.83357 -4.427591,-2.13174 -3.82387,-3.39236 -5.058788,-0.73402 -4.966,-0.34468 -4.977591,0.0597 -4.76299,1.84704 -5.087704,-0.46138 -4.708868,-2.77233 -3.036949,-4.5427 -5.335774,1.40046 -5.318004,-1.4665 -3.2235545,-4.01984 -3.1574187,-4.07199 -2.8505698,-4.58316 0.2602585,-5.39105 -2.06060988,-5.00045 -3.54703792,-4.08277 -5.3208175,-0.98921 -4.7065882,-2.67163 -5.309457,-0.55377 -4.941971,2.01839 -4.260589,-3.34989 -5.4079,-0.35918 -4.748645,-2.13922 -3.383644,-3.9594 -5.181634,-0.48006 -4.502725,-2.60869 -2.801681,-4.28597 -2.652948,-4.3796 -5.199389,-1.54293 -3.105761,-4.44619 -1.39104,-5.16599 -2.429114,-4.76675 2.142897,-4.90535 1.027599,-5.25343 -0.491795,-4.90276 -0.652332,-4.88399 -3.028515,-3.8936 -2.628424,-4.17414 -2.160536,-4.56915 -1.665695,-4.77186 -4.292016,-2.66014 -4.447452,-2.39122 -2.400168,-4.4116 0.545834,-4.9925 0.337564,-5.0202 -2.637219,-4.28502 0.522077,-4.89775 -1.741564,-4.60733 -0.880583,-4.72459 -0.139852,-4.80391 -4.36177,-2.72702 -2.26809,-4.61709 -3.19053,-3.92461 -4.51255,-2.28453 -3.65313,-3.80699 -0.3056,-5.26736 0.37338,-5.18432 -2.70756,-4.43686 0.62806,-5.27175 -0.49596,-5.28582 0.50164,-5.29683 -0.82149,-5.256726 0.20386,-5.845738 4.1283,-4.143833 5.59126,-1.696213 2.969839,-5.031837 4.8033,-2.404099 5.24138,-1.174451 3.438339,-4.174032 1.868094,-5.074934 4.727607,-2.257252 2.974846,-4.312279 5.081651,-0.969674 4.256113,-2.940911 1.374491,-5.133297 1.895531,-4.964567 1.597479,-5.063928 1.926037,-4.948301 4.722689,-2.528812 3.987932,-3.577019 5.172593,-2.240243 2.637641,-4.981692 0.515706,-5.362213 1.390444,-5.2044158 -0.253705,-5.5216379 2.328134,-5.0132469 -0.02236,-5.6536254 -2.734477,-4.948395 -4.560361,-3.405992 -2.102566,-5.289318 4.303311,-2.780581 2.86817,-4.245433 4.719048,-1.716927 4.80508,-1.458923 3.09422,-4.237645 4.673625,-2.385175 2.384644,-4.619166 0.491839,-5.175068 3.8203,-2.901374 4.128677,-2.44268 3.3801107,-3.393722 3.4898951,-3.28072 4.5838037,-1.753276 3.7965815,-3.109855 2.4567421,-4.257676 3.7372082,-3.193221 5.0929527,-2.658021 4.049536,-4.074862 0.139327,-5.838759 2.789701,-5.13109 5.633118,-1.697089 5.48914,2.116949 5.840719,-0.963345 3.865934,-4.482921 4.965429,1.473378 5.060683,-1.102642 4.883726,-1.493968 5.090585,0.41069 4.232068,3.655862 5.589518,0.181748 4.866863,-2.183607 5.297991,-0.621127 4.163331,-0.104774 3.91043,1.432773 3.782312,1.874032 4.218135,-0.158792 3.332059,2.703685 4.27893,0.321422 3.75891,1.646925 3.51153,2.123898 3.89842,2.025628 2.67538,3.484703 1.38587,4.350132 3.86195,2.435079 4.00455,2.136863 3.81498,2.459375 4.67418,0.471347 4.2752,-1.947494 3.11364,3.348186 0.59403,4.533458 3.49335,2.695046 2.46122,3.661853 4.1498,1.184457 4.23447,0.832481 4.15423,1.214485 3.88105,1.915733 4.45162,0.366717 4.29082,-1.241077 4.40989,1.242915 3.02152,3.444178 1.83904,4.105541 4.14729,1.742837 4.0113,1.43644 3.19535,2.818423 1.78683,3.925184 2.02756,3.806422 0.27869,4.328132 1.22032,4.161874 1.26065,4.209855 2.25234,3.773468 1.50409,4.3619763 -1.50954,4.3600927 2.26591,3.7377092 3.04397,3.1367241 4.00414,1.7934837 3.34014,2.8448668 3.26392,2.9394361 2.91721,3.2838011 3.70345,2.671587 4.55824,0.274516 2.67171,3.35167 3.60106,2.324677 2.96517,3.268784 4.27003,1.115345 0.89822,4.691418 3.87997,2.78603 4.50666,0.624339 3.79567,2.508515 1.14161,4.266688 -0.49439,4.389018 2.71442,3.417538 1.93572,3.911605 2.8395,3.433787 0.11052,4.45437 2.51697,3.607476 0.0991,4.397634 0.55673,0.53153 0.38325,0.667527 0.57928,0.510686 0.38285,0.67066 -0.0192,0.824292 0.54817,0.615906 -0.003,0.772554 0.17887,0.751567 0.5908,0.576133 0.68354,0.462327 0.38898,0.776641 -0.16766,0.852273 -0.31752,0.738365 0.0213,0.803462 0.14471,0.774346 0.27129,0.739566 0.0229,0.819711 0.34486,0.743991 -0.61026,0.590156 -0.12058,0.840337 -0.0805,0.77102 -0.28442,0.72115 -0.2535,0.763612 -0.64273,0.484006 -0.34977,0.772431 -0.77614,0.341467 -0.49893,0.642215 -0.73187,0.354579 -0.0949,0.826725 0.2395,0.796951 -0.16164,0.816372 -0.4716,0.685701 0.15181,0.748089 0.55588,0.523141 0.14785,0.712294 0.1529,0.711226 -0.19698,0.697318 -0.0243,0.724199 -0.28887,0.681503 0.0556,0.738103 -0.4989,0.592809 0.0468,0.773392 -0.27826,0.707214 0.21052,0.730246 0.40586,0.616828 0.31978,0.66554 -0.13185,0.73733 0.13858,0.73609 0.2319,0.69461 -0.0289,0.73173 -0.0349,0.71956 -0.0194,0.72015 0.28808,0.69062 0.32318,0.67491 -0.0116,0.75508 -0.21622,0.72357 0.39146,0.64681 0.64081,0.40122 0.0589,0.75754 0.41945,0.63356 0.62556,0.40553 0.36447,0.65035 0.11384,0.75827 0.56189,0.52174"
       style="fill:#ffff00;fill-opacity:1;stroke:#000000;stroke-width:0;stroke-linecap:butt;stroke-linejoin:miter;stroke-miterlimit:4;stroke-opacity:1;stroke-dashoffset:0;filter:url(#filter4104)"
       transform="matrix(2.1373274,0,0,2.5749935,485.47432,47.215468)" />
    <path
       sodipodi:nodetypes="cssssc"
       id="path3203-5"
       d="m 274.07407,112.03704 -3.49504,3.60109 -2.50389,4.34899 -2.26151,4.77439 1.24811,5.13337 -0.60369,5.32057 -4.0756,3.47308 -3.57492,3.73382 -4.98876,1.35415 -3.55031,3.64192 -1.25944,4.92769 -3.73257,3.27807 -4.52544,2.04897 -4.87611,1.08365 -3.40634,3.65345 -3.96514,2.73571 -4.56426,1.54077 -2.8125,4.1606 -3.77115,3.31649 -1.91155,4.87592 -4.41126,2.823 -2.18888,4.81113 0.83067,5.21997 1.41579,4.86868 0.82568,5.00267 0.42744,4.79864 -1.9448,4.40764 -1.32055,4.47445 -1.33453,4.4703 -3.92722,3.02652 -2.01512,4.53013 -0.89122,4.72445 -0.68351,4.75893 -0.5283,5.21203 -3.49985,3.89812 -4.64276,2.12098 -3.2917,3.90108 -4.60944,1.42008 -4.65887,1.24839 -4.68041,1.17073 -4.60122,1.45107 -4.7733,1.76953 -2.35616,4.51267 -4.38506,2.15125 -4.88398,-0.0584 -4.9718,1.01335 -4.86223,-1.45064 -2.88403,4.26337 -4.77614,1.91897 -1.75119,4.6017 -1.25892,4.75997 -0.7287,4.93774 -2.3587,4.39873 -2.56575,4.49693 -4.42857,2.68202 -4.97103,1.13293 -4.22452,2.85451 -4.20006,2.42405 -4.06967,2.63709 -4.30108,2.84707 -1.469399,4.94429 -4.526127,1.82622 -3.908706,2.92282 -4.897575,-0.0396 -4.67972,1.445 -4.020453,-2.98286 -2.501494,-4.33636 -4.929416,-1.79452 -2.483423,-4.62083 -4.014812,-2.83357 -4.427591,-2.13174 -3.82387,-3.39236 -5.058788,-0.73402 -4.966,-0.34468 -4.977591,0.0597 -4.76299,1.84704 -5.087704,-0.46138 -4.708868,-2.77233 -3.036949,-4.5427 -5.335774,1.40046 -5.318004,-1.4665 -3.2235545,-4.01984 -3.1574187,-4.07199 -2.8505698,-4.58316 0.2602585,-5.39105 -2.06060988,-5.00045 -3.54703792,-4.08277 -5.3208175,-0.98921 -4.7065882,-2.67163 -5.309457,-0.55377 -4.941971,2.01839 -4.260589,-3.34989 -5.4079,-0.35918 -4.748645,-2.13922 -3.383644,-3.9594 -5.181634,-0.48006 -4.502725,-2.60869 -2.801681,-4.28597 -2.652948,-4.3796 -5.199389,-1.54293 -3.105761,-4.44619 -1.39104,-5.16599 -2.429114,-4.76675 2.142897,-4.90535 1.027599,-5.25343 -0.491795,-4.90276 -0.652332,-4.88399 -3.028515,-3.8936 -2.628424,-4.17414 -2.160536,-4.56915 -1.665695,-4.77186 -4.292016,-2.66014 -4.447452,-2.39122 -2.400168,-4.4116 0.545834,-4.9925 0.337564,-5.0202 -2.637219,-4.28502 0.522077,-4.89775 -1.741564,-4.60733 -0.880583,-4.72459 -0.139852,-4.80391 -4.36177,-2.72702 -2.26809,-4.61709 -3.19053,-3.92461 -4.51255,-2.28453 -3.65313,-3.80699 -0.3056,-5.26736 0.37338,-5.18432 -2.70756,-4.43686 0.62806,-5.27175 -0.49596,-5.28582 0.50164,-5.29683 -0.82149,-5.256726 0.20386,-5.845738 4.1283,-4.143833 5.59126,-1.696213 2.969839,-5.031837 4.8033,-2.404099 5.24138,-1.174451 3.438339,-4.174032 1.868094,-5.074934 4.727607,-2.257252 2.974846,-4.312279 5.081651,-0.969674 4.256113,-2.940911 1.374491,-5.133297 1.895531,-4.964567 1.597479,-5.063928 1.926037,-4.948301 4.722689,-2.528812 3.987932,-3.577019 5.172593,-2.240243 2.637641,-4.981692 0.515706,-5.362213 1.390444,-5.2044158 -0.253705,-5.5216379 2.328134,-5.0132469 -0.02236,-5.6536254 -2.734477,-4.948395 -4.560361,-3.405992 -2.102566,-5.289318 4.303311,-2.780581 2.86817,-4.245433 4.719048,-1.716927 4.80508,-1.458923 3.09422,-4.237645 4.673625,-2.385175 2.384644,-4.619166 0.491839,-5.175068 3.8203,-2.901374 4.128677,-2.44268 3.3801107,-3.393722 3.4898951,-3.28072 4.5838037,-1.753276 3.7965815,-3.109855 2.4567421,-4.257676 3.7372082,-3.193221 5.0929527,-2.658021 4.049536,-4.074862 0.139327,-5.838759 2.789701,-5.13109 5.633118,-1.697089 5.48914,2.116949 5.840719,-0.963345 3.865934,-4.482921 4.965429,1.473378 5.060683,-1.102642 4.883726,-1.493968 5.090585,0.41069 4.232068,3.655862 5.589518,0.181748 4.866863,-2.183607 5.297991,-0.621127 4.163331,-0.104774 3.91043,1.432773 3.782312,1.874032 4.218135,-0.158792 3.332059,2.703685 4.27893,0.321422 3.75891,1.646925 3.51153,2.123898 3.89842,2.025628 2.67538,3.484703 1.38587,4.350132 3.86195,2.435079 4.00455,2.136863 3.81498,2.459375 4.67418,0.471347 4.2752,-1.947494 3.11364,3.348186 0.59403,4.533458 3.49335,2.695046 2.46122,3.661853 4.1498,1.184457 4.23447,0.832481 4.15423,1.214485 3.88105,1.915733 4.45162,0.366717 4.29082,-1.241077 4.40989,1.242915 3.02152,3.444178 1.83904,4.105541 4.14729,1.742837 4.0113,1.43644 3.19535,2.818423 1.78683,3.925184 2.02756,3.806422 0.27869,4.328132 1.22032,4.161874 1.26065,4.209855 2.25234,3.773468 1.50409,4.3619763 -1.50954,4.3600927 2.26591,3.7377092 3.04397,3.1367241 4.00414,1.7934837 3.34014,2.8448668 3.26392,2.9394361 2.91721,3.2838011 3.70345,2.671587 4.55824,0.274516 2.67171,3.35167 3.60106,2.324677 2.96517,3.268784 4.27003,1.115345 0.89822,4.691418 3.87997,2.78603 4.50666,0.624339 3.79567,2.508515 1.14161,4.266688 -0.49439,4.389018 2.71442,3.417538 1.93572,3.911605 2.8395,3.433787 0.11052,4.45437 2.51697,3.607476 0.0991,4.397634 0.55673,0.53153 0.38325,0.667527 0.57928,0.510686 0.38285,0.67066 -0.0192,0.824292 0.54817,0.615906 -0.003,0.772554 0.17887,0.751567 0.5908,0.576133 0.68354,0.462327 0.38898,0.776641 -0.16766,0.852273 -0.31752,0.738365 0.0213,0.803462 0.14471,0.774346 0.27129,0.739566 0.0229,0.819711 0.34486,0.743991 -0.61026,0.590156 -0.12058,0.840337 -0.0805,0.77102 -0.28442,0.72115 -0.2535,0.763612 -0.64273,0.484006 -0.34977,0.772431 -0.77614,0.341467 -0.49893,0.642215 -0.73187,0.354579 -0.0949,0.826725 0.2395,0.796951 -0.16164,0.816372 -0.4716,0.685701 0.15181,0.748089 0.55588,0.523141 0.14785,0.712294 0.1529,0.711226 -0.19698,0.697318 -0.0243,0.724199 -0.28887,0.681503 0.0556,0.738103 -0.4989,0.592809 0.0468,0.773392 -0.27826,0.707214 0.21052,0.730246 0.40586,0.616828 0.31978,0.66554 -0.13185,0.73733 0.13858,0.73609 0.2319,0.69461 -0.0289,0.73173 -0.0349,0.71956 -0.0194,0.72015 0.28808,0.69062 0.32318,0.67491 -0.0116,0.75508 -0.21622,0.72357 0.39146,0.64681 0.64081,0.40122 0.0589,0.75754 0.41945,0.63356 0.62556,0.40553 0.36447,0.65035 0.11384,0.75827 0.56189,0.52174"
       style="fill:#ff0000;fill-opacity:1;stroke:#000000;stroke-width:0;stroke-linecap:butt;stroke-linejoin:miter;stroke-miterlimit:4;stroke-opacity:1;stroke-dashoffset:0;filter:url(#filter4104-6)"
       transform="matrix(2.1373274,0,0,2.5749935,357.59552,33.550379)" />
    <path
       sodipodi:nodetypes="cssssc"
       id="path3203-6"
       d="m 274.07407,112.03704 -3.49504,3.60109 -2.50389,4.34899 -2.26151,4.77439 1.24811,5.13337 -0.60369,5.32057 -4.0756,3.47308 -3.57492,3.73382 -4.98876,1.35415 -3.55031,3.64192 -1.25944,4.92769 -3.73257,3.27807 -4.52544,2.04897 -4.87611,1.08365 -3.40634,3.65345 -3.96514,2.73571 -4.56426,1.54077 -2.8125,4.1606 -3.77115,3.31649 -1.91155,4.87592 -4.41126,2.823 -2.18888,4.81113 0.83067,5.21997 1.41579,4.86868 0.82568,5.00267 0.42744,4.79864 -1.9448,4.40764 -1.32055,4.47445 -1.33453,4.4703 -3.92722,3.02652 -2.01512,4.53013 -0.89122,4.72445 -0.68351,4.75893 -0.5283,5.21203 -3.49985,3.89812 -4.64276,2.12098 -3.2917,3.90108 -4.60944,1.42008 -4.65887,1.24839 -4.68041,1.17073 -4.60122,1.45107 -4.7733,1.76953 -2.35616,4.51267 -4.38506,2.15125 -4.88398,-0.0584 -4.9718,1.01335 -4.86223,-1.45064 -2.88403,4.26337 -4.77614,1.91897 -1.75119,4.6017 -1.25892,4.75997 -0.7287,4.93774 -2.3587,4.39873 -2.56575,4.49693 -4.42857,2.68202 -4.97103,1.13293 -4.22452,2.85451 -4.20006,2.42405 -4.06967,2.63709 -4.30108,2.84707 -1.469399,4.94429 -4.526127,1.82622 -3.908706,2.92282 -4.897575,-0.0396 -4.67972,1.445 -4.020453,-2.98286 -2.501494,-4.33636 -4.929416,-1.79452 -2.483423,-4.62083 -4.014812,-2.83357 -4.427591,-2.13174 -3.82387,-3.39236 -5.058788,-0.73402 -4.966,-0.34468 -4.977591,0.0597 -4.76299,1.84704 -5.087704,-0.46138 -4.708868,-2.77233 -3.036949,-4.5427 -5.335774,1.40046 -5.318004,-1.4665 -3.2235545,-4.01984 -3.1574187,-4.07199 -2.8505698,-4.58316 0.2602585,-5.39105 -2.06060988,-5.00045 -3.54703792,-4.08277 -5.3208175,-0.98921 -4.7065882,-2.67163 -5.309457,-0.55377 -4.941971,2.01839 -4.260589,-3.34989 -5.4079,-0.35918 -4.748645,-2.13922 -3.383644,-3.9594 -5.181634,-0.48006 -4.502725,-2.60869 -2.801681,-4.28597 -2.652948,-4.3796 -5.199389,-1.54293 -3.105761,-4.44619 -1.39104,-5.16599 -2.429114,-4.76675 2.142897,-4.90535 1.027599,-5.25343 -0.491795,-4.90276 -0.652332,-4.88399 -3.028515,-3.8936 -2.628424,-4.17414 -2.160536,-4.56915 -1.665695,-4.77186 -4.292016,-2.66014 -4.447452,-2.39122 -2.400168,-4.4116 0.545834,-4.9925 0.337564,-5.0202 -2.637219,-4.28502 0.522077,-4.89775 -1.741564,-4.60733 -0.880583,-4.72459 -0.139852,-4.80391 -4.36177,-2.72702 -2.26809,-4.61709 -3.19053,-3.92461 -4.51255,-2.28453 -3.65313,-3.80699 -0.3056,-5.26736 0.37338,-5.18432 -2.70756,-4.43686 0.62806,-5.27175 -0.49596,-5.28582 0.50164,-5.29683 -0.82149,-5.256726 0.20386,-5.845738 4.1283,-4.143833 5.59126,-1.696213 2.969839,-5.031837 4.8033,-2.404099 5.24138,-1.174451 3.438339,-4.174032 1.868094,-5.074934 4.727607,-2.257252 2.974846,-4.312279 5.081651,-0.969674 4.256113,-2.940911 1.374491,-5.133297 1.895531,-4.964567 1.597479,-5.063928 1.926037,-4.948301 4.722689,-2.528812 3.987932,-3.577019 5.172593,-2.240243 2.637641,-4.981692 0.515706,-5.362213 1.390444,-5.2044158 -0.253705,-5.5216379 2.328134,-5.0132469 -0.02236,-5.6536254 -2.734477,-4.948395 -4.560361,-3.405992 -2.102566,-5.289318 4.303311,-2.780581 2.86817,-4.245433 4.719048,-1.716927 4.80508,-1.458923 3.09422,-4.237645 4.673625,-2.385175 2.384644,-4.619166 0.491839,-5.175068 3.8203,-2.901374 4.128677,-2.44268 3.3801107,-3.393722 3.4898951,-3.28072 4.5838037,-1.753276 3.7965815,-3.109855 2.4567421,-4.257676 3.7372082,-3.193221 5.0929527,-2.658021 4.049536,-4.074862 0.139327,-5.838759 2.789701,-5.13109 5.633118,-1.697089 5.48914,2.116949 5.840719,-0.963345 3.865934,-4.482921 4.965429,1.473378 5.060683,-1.102642 4.883726,-1.493968 5.090585,0.41069 4.232068,3.655862 5.589518,0.181748 4.866863,-2.183607 5.297991,-0.621127 4.163331,-0.104774 3.91043,1.432773 3.782312,1.874032 4.218135,-0.158792 3.332059,2.703685 4.27893,0.321422 3.75891,1.646925 3.51153,2.123898 3.89842,2.025628 2.67538,3.484703 1.38587,4.350132 3.86195,2.435079 4.00455,2.136863 3.81498,2.459375 4.67418,0.471347 4.2752,-1.947494 3.11364,3.348186 0.59403,4.533458 3.49335,2.695046 2.46122,3.661853 4.1498,1.184457 4.23447,0.832481 4.15423,1.214485 3.88105,1.915733 4.45162,0.366717 4.29082,-1.241077 4.40989,1.242915 3.02152,3.444178 1.83904,4.105541 4.14729,1.742837 4.0113,1.43644 3.19535,2.818423 1.78683,3.925184 2.02756,3.806422 0.27869,4.328132 1.22032,4.161874 1.26065,4.209855 2.25234,3.773468 1.50409,4.3619763 -1.50954,4.3600927 2.26591,3.7377092 3.04397,3.1367241 4.00414,1.7934837 3.34014,2.8448668 3.26392,2.9394361 2.91721,3.2838011 3.70345,2.671587 4.55824,0.274516 2.67171,3.35167 3.60106,2.324677 2.96517,3.268784 4.27003,1.115345 0.89822,4.691418 3.87997,2.78603 4.50666,0.624339 3.79567,2.508515 1.14161,4.266688 -0.49439,4.389018 2.71442,3.417538 1.93572,3.911605 2.8395,3.433787 0.11052,4.45437 2.51697,3.607476 0.0991,4.397634 0.55673,0.53153 0.38325,0.667527 0.57928,0.510686 0.38285,0.67066 -0.0192,0.824292 0.54817,0.615906 -0.003,0.772554 0.17887,0.751567 0.5908,0.576133 0.68354,0.462327 0.38898,0.776641 -0.16766,0.852273 -0.31752,0.738365 0.0213,0.803462 0.14471,0.774346 0.27129,0.739566 0.0229,0.819711 0.34486,0.743991 -0.61026,0.590156 -0.12058,0.840337 -0.0805,0.77102 -0.28442,0.72115 -0.2535,0.763612 -0.64273,0.484006 -0.34977,0.772431 -0.77614,0.341467 -0.49893,0.642215 -0.73187,0.354579 -0.0949,0.826725 0.2395,0.796951 -0.16164,0.816372 -0.4716,0.685701 0.15181,0.748089 0.55588,0.523141 0.14785,0.712294 0.1529,0.711226 -0.19698,0.697318 -0.0243,0.724199 -0.28887,0.681503 0.0556,0.738103 -0.4989,0.592809 0.0468,0.773392 -0.27826,0.707214 0.21052,0.730246 0.40586,0.616828 0.31978,0.66554 -0.13185,0.73733 0.13858,0.73609 0.2319,0.69461 -0.0289,0.73173 -0.0349,0.71956 -0.0194,0.72015 0.28808,0.69062 0.32318,0.67491 -0.0116,0.75508 -0.21622,0.72357 0.39146,0.64681 0.64081,0.40122 0.0589,0.75754 0.41945,0.63356 0.62556,0.40553 0.36447,0.65035 0.11384,0.75827 0.56189,0.52174"
       style="fill:#ffff00;fill-opacity:1;stroke:#000000;stroke-width:0;stroke-linecap:butt;stroke-linejoin:miter;stroke-miterlimit:4;stroke-opacity:1;stroke-dashoffset:0;filter:url(#filter4104-4)"
       transform="matrix(2.1373274,0,0,2.5749935,10.223157,36.25965)" />
    <path
       sodipodi:nodetypes="cssssc"
       id="path3203-5-9"
       d="m 274.07407,112.03704 -3.49504,3.60109 -2.50389,4.34899 -2.26151,4.77439 1.24811,5.13337 -0.60369,5.32057 -4.0756,3.47308 -3.57492,3.73382 -4.98876,1.35415 -3.55031,3.64192 -1.25944,4.92769 -3.73257,3.27807 -4.52544,2.04897 -4.87611,1.08365 -3.40634,3.65345 -3.96514,2.73571 -4.56426,1.54077 -2.8125,4.1606 -3.77115,3.31649 -1.91155,4.87592 -4.41126,2.823 -2.18888,4.81113 0.83067,5.21997 1.41579,4.86868 0.82568,5.00267 0.42744,4.79864 -1.9448,4.40764 -1.32055,4.47445 -1.33453,4.4703 -3.92722,3.02652 -2.01512,4.53013 -0.89122,4.72445 -0.68351,4.75893 -0.5283,5.21203 -3.49985,3.89812 -4.64276,2.12098 -3.2917,3.90108 -4.60944,1.42008 -4.65887,1.24839 -4.68041,1.17073 -4.60122,1.45107 -4.7733,1.76953 -2.35616,4.51267 -4.38506,2.15125 -4.88398,-0.0584 -4.9718,1.01335 -4.86223,-1.45064 -2.88403,4.26337 -4.77614,1.91897 -1.75119,4.6017 -1.25892,4.75997 -0.7287,4.93774 -2.3587,4.39873 -2.56575,4.49693 -4.42857,2.68202 -4.97103,1.13293 -4.22452,2.85451 -4.20006,2.42405 -4.06967,2.63709 -4.30108,2.84707 -1.469399,4.94429 -4.526127,1.82622 -3.908706,2.92282 -4.897575,-0.0396 -4.67972,1.445 -4.020453,-2.98286 -2.501494,-4.33636 -4.929416,-1.79452 -2.483423,-4.62083 -4.014812,-2.83357 -4.427591,-2.13174 -3.82387,-3.39236 -5.058788,-0.73402 -4.966,-0.34468 -4.977591,0.0597 -4.76299,1.84704 -5.087704,-0.46138 -4.708868,-2.77233 -3.036949,-4.5427 -5.335774,1.40046 -5.318004,-1.4665 -3.2235545,-4.01984 -3.1574187,-4.07199 -2.8505698,-4.58316 0.2602585,-5.39105 -2.06060988,-5.00045 -3.54703792,-4.08277 -5.3208175,-0.98921 -4.7065882,-2.67163 -5.309457,-0.55377 -4.941971,2.01839 -4.260589,-3.34989 -5.4079,-0.35918 -4.748645,-2.13922 -3.383644,-3.9594 -5.181634,-0.48006 -4.502725,-2.60869 -2.801681,-4.28597 -2.652948,-4.3796 -5.199389,-1.54293 -3.105761,-4.44619 -1.39104,-5.16599 -2.429114,-4.76675 2.142897,-4.90535 1.027599,-5.25343 -0.491795,-4.90276 -0.652332,-4.88399 -3.028515,-3.8936 -2.628424,-4.17414 -2.160536,-4.56915 -1.665695,-4.77186 -4.292016,-2.66014 -4.447452,-2.39122 -2.400168,-4.4116 0.545834,-4.9925 0.337564,-5.0202 -2.637219,-4.28502 0.522077,-4.89775 -1.741564,-4.60733 -0.880583,-4.72459 -0.139852,-4.80391 -4.36177,-2.72702 -2.26809,-4.61709 -3.19053,-3.92461 -4.51255,-2.28453 -3.65313,-3.80699 -0.3056,-5.26736 0.37338,-5.18432 -2.70756,-4.43686 0.62806,-5.27175 -0.49596,-5.28582 0.50164,-5.29683 -0.82149,-5.256726 0.20386,-5.845738 4.1283,-4.143833 5.59126,-1.696213 2.969839,-5.031837 4.8033,-2.404099 5.24138,-1.174451 3.438339,-4.174032 1.868094,-5.074934 4.727607,-2.257252 2.974846,-4.312279 5.081651,-0.969674 4.256113,-2.940911 1.374491,-5.133297 1.895531,-4.964567 1.597479,-5.063928 1.926037,-4.948301 4.722689,-2.528812 3.987932,-3.577019 5.172593,-2.240243 2.637641,-4.981692 0.515706,-5.362213 1.390444,-5.2044158 -0.253705,-5.5216379 2.328134,-5.0132469 -0.02236,-5.6536254 -2.734477,-4.948395 -4.560361,-3.405992 -2.102566,-5.289318 4.303311,-2.780581 2.86817,-4.245433 4.719048,-1.716927 4.80508,-1.458923 3.09422,-4.237645 4.673625,-2.385175 2.384644,-4.619166 0.491839,-5.175068 3.8203,-2.901374 4.128677,-2.44268 3.3801107,-3.393722 3.4898951,-3.28072 4.5838037,-1.753276 3.7965815,-3.109855 2.4567421,-4.257676 3.7372082,-3.193221 5.0929527,-2.658021 4.049536,-4.074862 0.139327,-5.838759 2.789701,-5.13109 5.633118,-1.697089 5.48914,2.116949 5.840719,-0.963345 3.865934,-4.482921 4.965429,1.473378 5.060683,-1.102642 4.883726,-1.493968 5.090585,0.41069 4.232068,3.655862 5.589518,0.181748 4.866863,-2.183607 5.297991,-0.621127 4.163331,-0.104774 3.91043,1.432773 3.782312,1.874032 4.218135,-0.158792 3.332059,2.703685 4.27893,0.321422 3.75891,1.646925 3.51153,2.123898 3.89842,2.025628 2.67538,3.484703 1.38587,4.350132 3.86195,2.435079 4.00455,2.136863 3.81498,2.459375 4.67418,0.471347 4.2752,-1.947494 3.11364,3.348186 0.59403,4.533458 3.49335,2.695046 2.46122,3.661853 4.1498,1.184457 4.23447,0.832481 4.15423,1.214485 3.88105,1.915733 4.45162,0.366717 4.29082,-1.241077 4.40989,1.242915 3.02152,3.444178 1.83904,4.105541 4.14729,1.742837 4.0113,1.43644 3.19535,2.818423 1.78683,3.925184 2.02756,3.806422 0.27869,4.328132 1.22032,4.161874 1.26065,4.209855 2.25234,3.773468 1.50409,4.3619763 -1.50954,4.3600927 2.26591,3.7377092 3.04397,3.1367241 4.00414,1.7934837 3.34014,2.8448668 3.26392,2.9394361 2.91721,3.2838011 3.70345,2.671587 4.55824,0.274516 2.67171,3.35167 3.60106,2.324677 2.96517,3.268784 4.27003,1.115345 0.89822,4.691418 3.87997,2.78603 4.50666,0.624339 3.79567,2.508515 1.14161,4.266688 -0.49439,4.389018 2.71442,3.417538 1.93572,3.911605 2.8395,3.433787 0.11052,4.45437 2.51697,3.607476 0.0991,4.397634 0.55673,0.53153 0.38325,0.667527 0.57928,0.510686 0.38285,0.67066 -0.0192,0.824292 0.54817,0.615906 -0.003,0.772554 0.17887,0.751567 0.5908,0.576133 0.68354,0.462327 0.38898,0.776641 -0.16766,0.852273 -0.31752,0.738365 0.0213,0.803462 0.14471,0.774346 0.27129,0.739566 0.0229,0.819711 0.34486,0.743991 -0.61026,0.590156 -0.12058,0.840337 -0.0805,0.77102 -0.28442,0.72115 -0.2535,0.763612 -0.64273,0.484006 -0.34977,0.772431 -0.77614,0.341467 -0.49893,0.642215 -0.73187,0.354579 -0.0949,0.826725 0.2395,0.796951 -0.16164,0.816372 -0.4716,0.685701 0.15181,0.748089 0.55588,0.523141 0.14785,0.712294 0.1529,0.711226 -0.19698,0.697318 -0.0243,0.724199 -0.28887,0.681503 0.0556,0.738103 -0.4989,0.592809 0.0468,0.773392 -0.27826,0.707214 0.21052,0.730246 0.40586,0.616828 0.31978,0.66554 -0.13185,0.73733 0.13858,0.73609 0.2319,0.69461 -0.0289,0.73173 -0.0349,0.71956 -0.0194,0.72015 0.28808,0.69062 0.32318,0.67491 -0.0116,0.75508 -0.21622,0.72357 0.39146,0.64681 0.64081,0.40122 0.0589,0.75754 0.41945,0.63356 0.62556,0.40553 0.36447,0.65035 0.11384,0.75827 0.56189,0.52174"
       style="fill:#ff0000;fill-opacity:1;stroke:#000000;stroke-width:0;stroke-linecap:butt;stroke-linejoin:miter;stroke-miterlimit:4;stroke-opacity:1;stroke-dashoffset:0;filter:url(#filter4104-6-5)"
       transform="matrix(2.3480523,0,0,2.828869,-149.70846,56.189842)" />
    <path
       sodipodi:nodetypes="cssssc"
       id="path3203-52"
       d="m 274.07407,112.03704 -3.49504,3.60109 -2.50389,4.34899 -2.26151,4.77439 1.24811,5.13337 -0.60369,5.32057 -4.0756,3.47308 -3.57492,3.73382 -4.98876,1.35415 -3.55031,3.64192 -1.25944,4.92769 -3.73257,3.27807 -4.52544,2.04897 -4.87611,1.08365 -3.40634,3.65345 -3.96514,2.73571 -4.56426,1.54077 -2.8125,4.1606 -3.77115,3.31649 -1.91155,4.87592 -4.41126,2.823 -2.18888,4.81113 0.83067,5.21997 1.41579,4.86868 0.82568,5.00267 0.42744,4.79864 -1.9448,4.40764 -1.32055,4.47445 -1.33453,4.4703 -3.92722,3.02652 -2.01512,4.53013 -0.89122,4.72445 -0.68351,4.75893 -0.5283,5.21203 -3.49985,3.89812 -4.64276,2.12098 -3.2917,3.90108 -4.60944,1.42008 -4.65887,1.24839 -4.68041,1.17073 -4.60122,1.45107 -4.7733,1.76953 -2.35616,4.51267 -4.38506,2.15125 -4.88398,-0.0584 -4.9718,1.01335 -4.86223,-1.45064 -2.88403,4.26337 -4.77614,1.91897 -1.75119,4.6017 -1.25892,4.75997 -0.7287,4.93774 -2.3587,4.39873 -2.56575,4.49693 -4.42857,2.68202 -4.97103,1.13293 -4.22452,2.85451 -4.20006,2.42405 -4.06967,2.63709 -4.30108,2.84707 -1.469399,4.94429 -4.526127,1.82622 -3.908706,2.92282 -4.897575,-0.0396 -4.67972,1.445 -4.020453,-2.98286 -2.501494,-4.33636 -4.929416,-1.79452 -2.483423,-4.62083 -4.014812,-2.83357 -4.427591,-2.13174 -3.82387,-3.39236 -5.058788,-0.73402 -4.966,-0.34468 -4.977591,0.0597 -4.76299,1.84704 -5.087704,-0.46138 -4.708868,-2.77233 -3.036949,-4.5427 -5.335774,1.40046 -5.318004,-1.4665 -3.2235545,-4.01984 -3.1574187,-4.07199 -2.8505698,-4.58316 0.2602585,-5.39105 -2.06060988,-5.00045 -3.54703792,-4.08277 -5.3208175,-0.98921 -4.7065882,-2.67163 -5.309457,-0.55377 -4.941971,2.01839 -4.260589,-3.34989 -5.4079,-0.35918 -4.748645,-2.13922 -3.383644,-3.9594 -5.181634,-0.48006 -4.502725,-2.60869 -2.801681,-4.28597 -2.652948,-4.3796 -5.199389,-1.54293 -3.105761,-4.44619 -1.39104,-5.16599 -2.429114,-4.76675 2.142897,-4.90535 1.027599,-5.25343 -0.491795,-4.90276 -0.652332,-4.88399 -3.028515,-3.8936 -2.628424,-4.17414 -2.160536,-4.56915 -1.665695,-4.77186 -4.292016,-2.66014 -4.447452,-2.39122 -2.400168,-4.4116 0.545834,-4.9925 0.337564,-5.0202 -2.637219,-4.28502 0.522077,-4.89775 -1.741564,-4.60733 -0.880583,-4.72459 -0.139852,-4.80391 -4.36177,-2.72702 -2.26809,-4.61709 -3.19053,-3.92461 -4.51255,-2.28453 -3.65313,-3.80699 -0.3056,-5.26736 0.37338,-5.18432 -2.70756,-4.43686 0.62806,-5.27175 -0.49596,-5.28582 0.50164,-5.29683 -0.82149,-5.256726 0.20386,-5.845738 4.1283,-4.143833 5.59126,-1.696213 2.969839,-5.031837 4.8033,-2.404099 5.24138,-1.174451 3.438339,-4.174032 1.868094,-5.074934 4.727607,-2.257252 2.974846,-4.312279 5.081651,-0.969674 4.256113,-2.940911 1.374491,-5.133297 1.895531,-4.964567 1.597479,-5.063928 1.926037,-4.948301 4.722689,-2.528812 3.987932,-3.577019 5.172593,-2.240243 2.637641,-4.981692 0.515706,-5.362213 1.390444,-5.2044158 -0.253705,-5.5216379 2.328134,-5.0132469 -0.02236,-5.6536254 -2.734477,-4.948395 -4.560361,-3.405992 -2.102566,-5.289318 4.303311,-2.780581 2.86817,-4.245433 4.719048,-1.716927 4.80508,-1.458923 3.09422,-4.237645 4.673625,-2.385175 2.384644,-4.619166 0.491839,-5.175068 3.8203,-2.901374 4.128677,-2.44268 3.3801107,-3.393722 3.4898951,-3.28072 4.5838037,-1.753276 3.7965815,-3.109855 2.4567421,-4.257676 3.7372082,-3.193221 5.0929527,-2.658021 4.049536,-4.074862 0.139327,-5.838759 2.789701,-5.13109 5.633118,-1.697089 5.48914,2.116949 5.840719,-0.963345 3.865934,-4.482921 4.965429,1.473378 5.060683,-1.102642 4.883726,-1.493968 5.090585,0.41069 4.232068,3.655862 5.589518,0.181748 4.866863,-2.183607 5.297991,-0.621127 4.163331,-0.104774 3.91043,1.432773 3.782312,1.874032 4.218135,-0.158792 3.332059,2.703685 4.27893,0.321422 3.75891,1.646925 3.51153,2.123898 3.89842,2.025628 2.67538,3.484703 1.38587,4.350132 3.86195,2.435079 4.00455,2.136863 3.81498,2.459375 4.67418,0.471347 4.2752,-1.947494 3.11364,3.348186 0.59403,4.533458 3.49335,2.695046 2.46122,3.661853 4.1498,1.184457 4.23447,0.832481 4.15423,1.214485 3.88105,1.915733 4.45162,0.366717 4.29082,-1.241077 4.40989,1.242915 3.02152,3.444178 1.83904,4.105541 4.14729,1.742837 4.0113,1.43644 3.19535,2.818423 1.78683,3.925184 2.02756,3.806422 0.27869,4.328132 1.22032,4.161874 1.26065,4.209855 2.25234,3.773468 1.50409,4.3619763 -1.50954,4.3600927 2.26591,3.7377092 3.04397,3.1367241 4.00414,1.7934837 3.34014,2.8448668 3.26392,2.9394361 2.91721,3.2838011 3.70345,2.671587 4.55824,0.274516 2.67171,3.35167 3.60106,2.324677 2.96517,3.268784 4.27003,1.115345 0.89822,4.691418 3.87997,2.78603 4.50666,0.624339 3.79567,2.508515 1.14161,4.266688 -0.49439,4.389018 2.71442,3.417538 1.93572,3.911605 2.8395,3.433787 0.11052,4.45437 2.51697,3.607476 0.0991,4.397634 0.55673,0.53153 0.38325,0.667527 0.57928,0.510686 0.38285,0.67066 -0.0192,0.824292 0.54817,0.615906 -0.003,0.772554 0.17887,0.751567 0.5908,0.576133 0.68354,0.462327 0.38898,0.776641 -0.16766,0.852273 -0.31752,0.738365 0.0213,0.803462 0.14471,0.774346 0.27129,0.739566 0.0229,0.819711 0.34486,0.743991 -0.61026,0.590156 -0.12058,0.840337 -0.0805,0.77102 -0.28442,0.72115 -0.2535,0.763612 -0.64273,0.484006 -0.34977,0.772431 -0.77614,0.341467 -0.49893,0.642215 -0.73187,0.354579 -0.0949,0.826725 0.2395,0.796951 -0.16164,0.816372 -0.4716,0.685701 0.15181,0.748089 0.55588,0.523141 0.14785,0.712294 0.1529,0.711226 -0.19698,0.697318 -0.0243,0.724199 -0.28887,0.681503 0.0556,0.738103 -0.4989,0.592809 0.0468,0.773392 -0.27826,0.707214 0.21052,0.730246 0.40586,0.616828 0.31978,0.66554 -0.13185,0.73733 0.13858,0.73609 0.2319,0.69461 -0.0289,0.73173 -0.0349,0.71956 -0.0194,0.72015 0.28808,0.69062 0.32318,0.67491 -0.0116,0.75508 -0.21622,0.72357 0.39146,0.64681 0.64081,0.40122 0.0589,0.75754 0.41945,0.63356 0.62556,0.40553 0.36447,0.65035 0.11384,0.75827 0.56189,0.52174"
       style="fill:#ffff00;fill-opacity:1;stroke:#000000;stroke-width:0;stroke-linecap:butt;stroke-linejoin:miter;stroke-miterlimit:4;stroke-opacity:1;stroke-dashoffset:0;filter:url(#filter4104-3)"
       transform="matrix(2.1373274,0,0,2.5749935,-332.87563,13.364102)" />
  </g>
  <g
     transform="translate(0,-452.36218)"
     id="layer1"
     inkscape:groupmode="layer"
     inkscape:label="boss">
    <g
       id="g4321"
       transform="matrix(1.2487507,0,0,1.2487507,-857.79681,-533.14859)">
      <rect
         style="fill:#afdde9;fill-opacity:1;stroke:#000000;stroke-width:1.60160065;stroke-linecap:butt;stroke-linejoin:miter;stroke-miterlimit:4;stroke-opacity:1;stroke-dasharray:none;stroke-dashoffset:0;filter:url(#filter3188)"
         id="rect2839"
         width="70.925728"
         height="127.07526"
         x="785.33752"
         y="283.70911"
         transform="matrix(0.99763662,0.06871075,-0.06871075,0.99763662,208.76969,634.95182)" />
      <rect
         style="fill:#afdde9;fill-opacity:1;stroke:#000000;stroke-width:1.60160065;stroke-linecap:butt;stroke-linejoin:miter;stroke-miterlimit:4;stroke-opacity:1;stroke-dasharray:none;stroke-dashoffset:0;filter:url(#filter3188)"
         id="rect3637"
         width="62.682171"
         height="62.682171"
         x="684.54834"
         y="162.54433"
         transform="matrix(0.99763662,0.06871075,-0.06871075,0.99763662,208.76969,634.95182)" />
      <rect
         style="fill:#afdde9;fill-opacity:1;stroke:#000000;stroke-width:1.60160065;stroke-linecap:butt;stroke-linejoin:miter;stroke-miterlimit:4;stroke-opacity:1;stroke-dasharray:none;stroke-dashoffset:0;filter:url(#filter3188)"
         id="rect3637-1"
         width="62.682171"
         height="62.682171"
         x="891.88171"
         y="169.77679"
         transform="matrix(0.99763662,0.06871075,-0.06871075,0.99763662,208.76969,634.95182)" />
      <rect
         style="fill:#afdde9;fill-opacity:1;stroke:#000000;stroke-width:1.60160065;stroke-linecap:butt;stroke-linejoin:miter;stroke-miterlimit:4;stroke-opacity:1;stroke-dasharray:none;stroke-dashoffset:0;filter:url(#filter3188)"
         id="rect2837"
         width="171.5296"
         height="167.63121"
         x="738.30524"
         y="135.25528"
         transform="matrix(0.99763662,0.06871075,-0.06871075,0.99763662,208.76969,634.95182)" />
      <rect
         style="fill:#afdde9;fill-opacity:1;stroke:#000000;stroke-width:1.60160065;stroke-linecap:butt;stroke-linejoin:miter;stroke-miterlimit:4;stroke-opacity:1;stroke-dasharray:none;stroke-dashoffset:0;filter:url(#filter3188)"
         id="rect2841"
         width="202.20058"
         height="307.34482"
         x="716.74487"
         y="332.237"
         transform="matrix(0.99763662,0.06871075,-0.06871075,0.99763662,208.76969,634.95182)" />
      <rect
         style="fill:#afdde9;fill-opacity:1;stroke:#000000;stroke-width:1.60160065;stroke-linecap:butt;stroke-linejoin:miter;stroke-miterlimit:4;stroke-opacity:1;stroke-dasharray:none;stroke-dashoffset:0;filter:url(#filter3188)"
         id="rect2847"
         width="73.880974"
         height="247.54013"
         x="723.35529"
         y="595.09778"
         transform="matrix(0.99763662,0.06871075,-0.06871075,0.99763662,208.76969,634.95182)" />
      <rect
         style="fill:#afdde9;fill-opacity:1;stroke:#000000;stroke-width:1.60160065;stroke-linecap:butt;stroke-linejoin:miter;stroke-miterlimit:4;stroke-opacity:1;stroke-dasharray:none;stroke-dashoffset:0;filter:url(#filter3188)"
         id="rect2845"
         width="82.280075"
         height="191.39058"
         x="722.67566"
         y="-133.65176"
         transform="matrix(0.79907413,0.60123251,-0.60123251,0.79907413,208.76969,634.95182)" />
      <rect
         style="fill:#afdde9;fill-opacity:1;stroke:#000000;stroke-width:1.60160065;stroke-linecap:butt;stroke-linejoin:miter;stroke-miterlimit:4;stroke-opacity:1;stroke-dasharray:none;stroke-dashoffset:0;filter:url(#filter3188)"
         id="rect2849"
         width="73.880974"
         height="248.8622"
         x="843.82013"
         y="588.9541"
         transform="matrix(0.99763662,0.06871075,-0.06871075,0.99763662,208.76969,634.95182)" />
      <rect
         style="fill:#afdde9;fill-opacity:1;stroke:#000000;stroke-width:1.60160065;stroke-linecap:butt;stroke-linejoin:miter;stroke-miterlimit:4;stroke-opacity:1;stroke-dasharray:none;stroke-dashoffset:0;filter:url(#filter3188)"
         id="rect2843"
         width="86.868469"
         height="222.10954"
         x="450.08047"
         y="815.41919"
         transform="matrix(0.81117651,-0.58480139,0.58480139,0.81117651,208.76969,634.95182)" />
      <path
         sodipodi:type="arc"
         style="fill:#000000;fill-opacity:1;stroke:#000000;stroke-width:0.40779039;stroke-linecap:butt;stroke-linejoin:miter;stroke-miterlimit:4;stroke-opacity:1;stroke-dasharray:none;stroke-dashoffset:0;filter:url(#filter3188)"
         id="path3631"
         sodipodi:cx="53.096943"
         sodipodi:cy="24.135557"
         sodipodi:rx="6.4452939"
         sodipodi:ry="7.0591311"
         d="m 59.542237,24.135557 c 0,3.898651 -2.885657,7.059131 -6.445294,7.059131 -3.559638,0 -6.445294,-3.16048 -6.445294,-7.059131 0,-3.89865 2.885656,-7.059131 6.445294,-7.059131 3.559637,0 6.445294,3.160481 6.445294,7.059131 z"
         transform="matrix(3.9182275,0.26986213,-0.26986213,3.9182275,767.45298,766.71635)" />
      <path
         sodipodi:type="arc"
         style="fill:#000000;fill-opacity:1;stroke:#000000;stroke-width:0.40779039;stroke-linecap:butt;stroke-linejoin:miter;stroke-miterlimit:4;stroke-opacity:1;stroke-dasharray:none;stroke-dashoffset:0;filter:url(#filter3188)"
         id="path3633"
         sodipodi:cx="73.046661"
         sodipodi:cy="24.442476"
         sodipodi:rx="6.7522125"
         sodipodi:ry="6.7522125"
         d="m 79.798874,24.442476 c 0,3.729144 -3.023069,6.752213 -6.752213,6.752213 -3.729144,0 -6.752212,-3.023069 -6.752212,-6.752213 0,-3.729144 3.023068,-6.752212 6.752212,-6.752212 3.729144,0 6.752213,3.023068 6.752213,6.752212 z"
         transform="matrix(3.9182275,0.26986213,-0.26986213,3.9182275,774.8341,764.80814)" />
      <rect
         style="fill:#afdde9;fill-opacity:1;stroke:#000000;stroke-width:1.60160065;stroke-linecap:butt;stroke-linejoin:miter;stroke-miterlimit:4;stroke-opacity:1;stroke-dasharray:none;stroke-dashoffset:0;filter:url(#filter3188)"
         id="rect3635"
         width="38.573643"
         height="31.341085"
         x="800.26929"
         y="230.04816"
         transform="matrix(0.99763662,0.06871075,-0.06871075,0.99763662,208.76969,634.95182)" />
      <rect
         style="fill:#afdde9;fill-opacity:1;stroke:#000000;stroke-width:1.60160065;stroke-linecap:butt;stroke-linejoin:miter;stroke-miterlimit:4;stroke-opacity:1;stroke-dasharray:none;stroke-dashoffset:0;filter:url(#filter3188)"
         id="rect3661"
         width="74.736435"
         height="192.86821"
         x="978.67242"
         y="420.50552"
         transform="matrix(0.99763662,0.06871075,-0.06871075,0.99763662,208.76969,634.95182)" />
      <path
         sodipodi:type="arc"
         style="fill:#afdde9;fill-opacity:1;stroke:#000000;stroke-width:0.40779039;stroke-linecap:butt;stroke-linejoin:miter;stroke-miterlimit:4;stroke-opacity:1;stroke-dasharray:none;stroke-dashoffset:0;filter:url(#filter3188)"
         id="path3663"
         sodipodi:cx="140.8757"
         sodipodi:cy="76.61866"
         sodipodi:rx="9.5144815"
         sodipodi:ry="8.5937252"
         d="m 150.39018,76.61866 c 0,4.746183 -4.25978,8.593725 -9.51448,8.593725 -5.2547,0 -9.51448,-3.847542 -9.51448,-8.593725 0,-4.746183 4.25978,-8.593725 9.51448,-8.593725 5.2547,0 9.51448,3.847542 9.51448,8.593725 z"
         transform="matrix(3.9182275,0.26986213,-0.26986213,3.9182275,660.55263,810.10157)" />
      <rect
         style="fill:#afdde9;fill-opacity:1;stroke:#000000;stroke-width:1.60160065;stroke-linecap:butt;stroke-linejoin:miter;stroke-miterlimit:4;stroke-opacity:1;stroke-dasharray:none;stroke-dashoffset:0;filter:url(#filter3188)"
         id="rect3665"
         width="72.325577"
         height="202.51163"
         x="324.02515"
         y="-698.52679"
         transform="matrix(-0.20334579,0.97910699,-0.97910699,-0.20334579,208.76969,634.95182)" />
      <path
         sodipodi:type="arc"
         style="fill:#afdde9;fill-opacity:1;stroke:#000000;stroke-width:0.40779039;stroke-linecap:butt;stroke-linejoin:miter;stroke-miterlimit:4;stroke-opacity:1;stroke-dasharray:none;stroke-dashoffset:0;filter:url(#filter3188)"
         id="path3663-0"
         sodipodi:cx="140.8757"
         sodipodi:cy="76.61866"
         sodipodi:rx="9.5144815"
         sodipodi:ry="8.5937252"
         d="m 150.39018,76.61866 c 0,4.746183 -4.25978,8.593725 -9.51448,8.593725 -5.2547,0 -9.51448,-3.847542 -9.51448,-8.593725 0,-4.746183 4.25978,-8.593725 9.51448,-8.593725 5.2547,0 9.51448,3.847542 9.51448,8.593725 z"
         transform="matrix(3.9182275,0.26986213,-0.26986213,3.9182275,271.45752,792.96951)" />
      <g
         id="g3803"
         transform="matrix(1.7479042,3.5171242,-3.5171242,1.7479042,4392.2144,-814.85601)"
         style="filter:url(#filter3188)">
        <rect
           y="965.8111"
           x="111.10458"
           height="25.781176"
           width="6.1383748"
           id="rect3689"
           style="fill:#afdde9;fill-opacity:1;stroke:#000000;stroke-width:0.40779039;stroke-linecap:butt;stroke-linejoin:miter;stroke-miterlimit:4;stroke-opacity:1;stroke-dasharray:none;stroke-dashoffset:0" />
        <rect
           transform="matrix(0.68748861,-0.72619516,0.72619516,0.68748861,0,0)"
           y="760.00977"
           x="-643.58954"
           height="25.781176"
           width="6.1383748"
           id="rect3689-6"
           style="fill:#afdde9;fill-opacity:1;stroke:#000000;stroke-width:0.40779039;stroke-linecap:butt;stroke-linejoin:miter;stroke-miterlimit:4;stroke-opacity:1;stroke-dasharray:none;stroke-dashoffset:0" />
        <rect
           transform="matrix(-0.41846128,0.90823464,0.90823464,0.41846128,0,0)"
           y="507.57605"
           x="827.65796"
           height="25.781176"
           width="6.1383748"
           id="rect3689-3"
           style="fill:#afdde9;fill-opacity:1;stroke:#000000;stroke-width:0.40779039;stroke-linecap:butt;stroke-linejoin:miter;stroke-miterlimit:4;stroke-opacity:1;stroke-dasharray:none;stroke-dashoffset:0" />
        <rect
           transform="matrix(-0.94724296,0.32051641,0.32051641,0.94724296,0,0)"
           y="965.33582"
           x="181.80081"
           height="25.781176"
           width="6.1383748"
           id="rect3689-6-2"
           style="fill:#afdde9;fill-opacity:1;stroke:#000000;stroke-width:0.40779039;stroke-linecap:butt;stroke-linejoin:miter;stroke-miterlimit:4;stroke-opacity:1;stroke-dasharray:none;stroke-dashoffset:0" />
        <path
           transform="translate(-48.493162,868.93579)"
           d="m 170.03298,101.47908 c 0,3.89865 -2.61083,7.05913 -5.83146,7.05913 -3.22062,0 -5.83145,-3.16048 -5.83145,-7.05913 0,-3.89865 2.61083,-7.059131 5.83145,-7.059131 3.22063,0 5.83146,3.160481 5.83146,7.059131 z"
           sodipodi:ry="7.0591311"
           sodipodi:rx="5.8314562"
           sodipodi:cy="101.47908"
           sodipodi:cx="164.20152"
           id="path3754"
           style="fill:#afdde9;fill-opacity:1;stroke:#000000;stroke-width:0.40779039;stroke-linecap:butt;stroke-linejoin:miter;stroke-miterlimit:4;stroke-opacity:1;stroke-dasharray:none;stroke-dashoffset:0"
           sodipodi:type="arc" />
      </g>
      <rect
         style="fill:#afdde9;fill-opacity:1;stroke:#000000;stroke-width:1.60160065;stroke-linecap:butt;stroke-linejoin:miter;stroke-miterlimit:4;stroke-opacity:1;stroke-dasharray:none;stroke-dashoffset:0;filter:url(#filter3188)"
         id="rect3689-0"
         width="24.108526"
         height="101.25581"
         x="-176.00601"
         y="-637.05292"
         transform="matrix(-0.87874451,0.47729244,-0.47729244,-0.87874451,208.76969,634.95182)" />
      <rect
         style="fill:#afdde9;fill-opacity:1;stroke:#000000;stroke-width:1.60160065;stroke-linecap:butt;stroke-linejoin:miter;stroke-miterlimit:4;stroke-opacity:1;stroke-dasharray:none;stroke-dashoffset:0;filter:url(#filter3188)"
         id="rect3689-6-6"
         width="24.108526"
         height="101.25582"
         x="290.50922"
         y="-477.76157"
         transform="matrix(-0.20861928,0.97799693,-0.97799693,-0.20861928,208.76969,634.95182)" />
      <rect
         style="fill:#afdde9;fill-opacity:1;stroke:#000000;stroke-width:1.60160065;stroke-linecap:butt;stroke-linejoin:miter;stroke-miterlimit:4;stroke-opacity:1;stroke-dasharray:none;stroke-dashoffset:0;filter:url(#filter3188)"
         id="rect3689-3-1"
         width="24.108526"
         height="101.25582"
         x="-516.85052"
         y="-416.56897"
         transform="matrix(-0.06577298,-0.99783461,-0.99783461,0.06577298,208.76969,634.95182)" />
      <rect
         style="fill:#afdde9;fill-opacity:1;stroke:#000000;stroke-width:1.60160065;stroke-linecap:butt;stroke-linejoin:miter;stroke-miterlimit:4;stroke-opacity:1;stroke-dasharray:none;stroke-dashoffset:0;filter:url(#filter3188)"
         id="rect3689-6-2-5"
         width="24.108526"
         height="101.25581"
         x="111.16949"
         y="-596.56964"
         transform="matrix(0.915067,-0.40330185,-0.40330185,-0.915067,208.76969,634.95182)" />
      <path
         sodipodi:type="arc"
         style="fill:#afdde9;fill-opacity:1;stroke:#000000;stroke-width:0.40779039;stroke-linecap:butt;stroke-linejoin:miter;stroke-miterlimit:4;stroke-opacity:1;stroke-dasharray:none;stroke-dashoffset:0;filter:url(#filter3188)"
         id="path3754-5"
         sodipodi:cx="164.20152"
         sodipodi:cy="101.47908"
         sodipodi:rx="5.8314562"
         sodipodi:ry="7.0591311"
         d="m 170.03298,101.47908 c 0,3.89865 -2.61083,7.05913 -5.83146,7.05913 -3.22062,0 -5.83145,-3.16048 -5.83145,-7.05913 0,-3.89865 2.61083,-7.059131 5.83145,-7.059131 3.22063,0 5.83146,3.160481 5.83146,7.059131 z"
         transform="matrix(-3.4512776,1.8745707,-1.8745707,-3.4512776,1399.9105,1145.9187)" />
      <rect
         style="fill:#afdde9;fill-opacity:1;stroke:#000000;stroke-width:1.60160065;stroke-linecap:butt;stroke-linejoin:miter;stroke-miterlimit:4;stroke-opacity:1;stroke-dasharray:none;stroke-dashoffset:0;filter:url(#filter3188)"
         id="rect3790"
         width="132.59689"
         height="151.88371"
         x="749.64136"
         y="401.21869"
         ry="41.693569"
         transform="matrix(0.99763662,0.06871075,-0.06871075,0.99763662,208.76969,634.95182)" />
      <rect
         style="fill:#afdde9;fill-opacity:1;stroke:#000000;stroke-width:1.60160065;stroke-linecap:butt;stroke-linejoin:miter;stroke-miterlimit:4;stroke-opacity:1;stroke-dasharray:none;stroke-dashoffset:0;filter:url(#filter3188)"
         id="rect3792"
         width="118.13178"
         height="77.147285"
         x="684.54834"
         y="803.83112"
         ry="38.573643"
         transform="matrix(0.99763662,0.06871075,-0.06871075,0.99763662,208.76969,634.95182)" />
      <rect
         style="fill:#afdde9;fill-opacity:1;stroke:#000000;stroke-width:1.60160065;stroke-linecap:butt;stroke-linejoin:miter;stroke-miterlimit:4;stroke-opacity:1;stroke-dasharray:none;stroke-dashoffset:0;filter:url(#filter3188)"
         id="rect3794"
         width="125.36434"
         height="79.558136"
         x="821.96692"
         y="818.29651"
         ry="38.573643"
         transform="matrix(0.99763662,0.06871075,-0.06871075,0.99763662,208.76969,634.95182)" />
    </g>
  </g>
</svg>
